<svg width="32" height="32" viewBox="0 0 32 32" fill="none" xmlns="http://www.w3.org/2000/svg">
  <rect width="32" height="32" rx="4" fill="#0f172a"/>
  <g transform="translate(8, 8)">
    <path stroke-linecap="round" stroke-linejoin="round" stroke-width="1" stroke="#0D9488" fill="none" d="M14 8.829A15.931 15.931 0 008 10c-2.123 0-4.147-.413-6-1.161M10.667 4V2.667a1.333 1.333 0 00-1.334-1.334H7a1.333 1.333 0 00-1.333 1.334V4M8 8h.007M3.333 13.333h8.334A1.333 1.333 0 0013 12V5.333A1.333 1.333 0 0011.667 4H3.333A1.333 1.333 0 002 5.333V12a1.333 1.333 0 001.333 1.333z" />
  </g>
</svg>