<svg width="512" height="512" viewBox="0 0 512 512" fill="none" xmlns="http://www.w3.org/2000/svg">
  <rect width="512" height="512" rx="64" fill="#0f172a"/>
  <g transform="translate(128, 128)">
    <path stroke-linecap="round" stroke-linejoin="round" stroke-width="16" stroke="#0D9488" fill="none" d="M224 141.387A255.931 255.931 0 00128 160c-33.956 0-66.347-6.613-96-18.613M170.667 64V42.667a21.333 21.333 0 00-21.334-21.334h-42.666a21.333 21.333 0 00-21.334 21.334V64m42.667 64h.107M53.333 213.333h149.334a21.333 21.333 0 0021.333-21.333V85.333a21.333 21.333 0 00-21.333-21.333H53.333a21.333 21.333 0 00-21.333 21.333V192a21.333 21.333 0 0021.333 21.333z" />
  </g>
</svg>